<!-- Generator: Adobe Illustrator 22.1.0, SVG Export Plug-In  -->
<svg version="1.1"
	 xmlns="http://www.w3.org/2000/svg" xmlns:xlink="http://www.w3.org/1999/xlink" xmlns:a="http://ns.adobe.com/AdobeSVGViewerExtensions/3.0/"
	 x="0px" y="0px" viewBox="0 0 362.7 379.6" enable-background="new 0 0 362.7 379.6"
	 xml:space="preserve">
<defs>
</defs>
<g>
	<g>
		
			<rect x="277.5" y="32.1" transform="matrix(-0.809 -0.5878 0.5878 -0.809 475.3856 261.8407)" fill="#FF5049" width="5.5" height="43.1"/>
		
			<rect x="249.2" y="71" transform="matrix(-0.809 -0.5878 0.5878 -0.809 401.423 315.5775)" fill="#FF5049" width="5.5" height="43.1"/>
		
			<rect x="221" y="109.9" transform="matrix(-0.809 -0.5878 0.5878 -0.809 327.4638 369.3126)" fill="#FF5049" width="5.5" height="43.1"/>
		
			<rect x="192.7" y="148.8" transform="matrix(-0.809 -0.5878 0.5878 -0.809 253.5014 423.05)" fill="#FF5049" width="5.5" height="43.1"/>
		
			<rect x="164.5" y="187.7" transform="matrix(-0.809 -0.5878 0.5878 -0.809 179.5351 476.7876)" fill="#FF5049" width="5.5" height="43.1"/>
		
			<rect x="136.2" y="226.5" transform="matrix(-0.809 -0.5878 0.5878 -0.809 105.5694 530.5239)" fill="#FF5049" width="5.5" height="43.1"/>
		
			<rect x="108" y="265.4" transform="matrix(-0.809 -0.5878 0.5878 -0.809 31.611 584.2613)" fill="#FF5049" width="5.5" height="43.1"/>
		
			<rect x="79.7" y="304.3" transform="matrix(-0.809 -0.5878 0.5878 -0.809 -42.3515 637.9982)" fill="#FF5049" width="5.5" height="43.1"/>
	</g>
	<g>
		
			<rect x="338.6" y="220.2" transform="matrix(0.309 -0.9511 0.9511 0.309 5.9245 491.6908)" fill="#006043" width="5.5" height="43.1"/>
		
			<rect x="292.9" y="205.4" transform="matrix(0.309 -0.9511 0.9511 0.309 -11.5317 437.9594)" fill="#006043" width="5.5" height="43.1"/>
		
			<rect x="247.1" y="190.5" transform="matrix(0.309 -0.9511 0.9511 0.309 -28.9952 384.2174)" fill="#006043" width="5.5" height="43.1"/>
		
			<rect x="201.4" y="175.6" transform="matrix(0.309 -0.9511 0.9511 0.309 -46.4527 330.485)" fill="#006043" width="5.5" height="43.1"/>
		
			<rect x="155.7" y="160.8" transform="matrix(0.309 -0.9511 0.9511 0.309 -63.9148 276.7439)" fill="#006043" width="5.5" height="43.1"/>
		
			<rect x="110" y="145.9" transform="matrix(0.309 -0.9511 0.9511 0.309 -81.3737 223.0105)" fill="#006043" width="5.5" height="43.1"/>
		
			<rect x="64.3" y="131.1" transform="matrix(0.309 -0.9511 0.9511 0.309 -98.8346 169.2704)" fill="#006043" width="5.5" height="43.1"/>
		
			<rect x="18.6" y="116.2" transform="matrix(0.309 -0.9511 0.9511 0.309 -116.2943 115.533)" fill="#006043" width="5.5" height="43.1"/>
	</g>
	<g>
		
			<rect x="18.6" y="220.2" transform="matrix(0.309 0.9511 -0.9511 0.309 244.6954 146.7388)" fill="#FEB7C4" width="5.5" height="43.1"/>
		
			<rect x="64.3" y="205.4" transform="matrix(0.309 0.9511 -0.9511 0.309 262.1576 93.0055)" fill="#FEB7C4" width="5.5" height="43.1"/>
		
			<rect x="110" y="190.5" transform="matrix(0.309 0.9511 -0.9511 0.309 279.6182 39.2682)" fill="#FEB7C4" width="5.5" height="43.1"/>
		
			<rect x="155.7" y="175.6" transform="matrix(0.309 0.9511 -0.9511 0.309 297.0752 -14.4713)" fill="#FEB7C4" width="5.5" height="43.1"/>
		
			<rect x="201.4" y="160.8" transform="matrix(0.309 0.9511 -0.9511 0.309 314.5338 -68.2086)" fill="#FEB7C4" width="5.5" height="43.1"/>
		
			<rect x="247.1" y="145.9" transform="matrix(0.309 0.9511 -0.9511 0.309 332.0001 -121.9433)" fill="#FEB7C4" width="5.5" height="43.1"/>
		
			<rect x="292.9" y="131.1" transform="matrix(0.309 0.9511 -0.9511 0.309 349.4607 -175.6805)" fill="#FEB7C4" width="5.5" height="43.1"/>
		
			<rect x="338.6" y="116.2" transform="matrix(0.309 0.9511 -0.9511 0.309 366.915 -229.4181)" fill="#FEB7C4" width="5.5" height="43.1"/>
	</g>
	<g>
		
			<rect x="79.7" y="32.1" transform="matrix(-0.809 0.5878 -0.5878 -0.809 180.7531 48.6458)" fill="#FEC047" width="5.5" height="43.1"/>
		
			<rect x="108" y="71" transform="matrix(-0.809 0.5878 -0.5878 -0.809 254.7156 102.3857)" fill="#FEC047" width="5.5" height="43.1"/>
		
			<rect x="136.2" y="109.9" transform="matrix(-0.809 0.5878 -0.5878 -0.809 328.6782 156.1212)" fill="#FEC047" width="5.5" height="43.1"/>
		
			<rect x="164.5" y="148.8" transform="matrix(-0.809 0.5878 -0.5878 -0.809 402.6408 209.8574)" fill="#FEC047" width="5.5" height="43.1"/>
		
			<rect x="192.7" y="187.7" transform="matrix(-0.809 0.5878 -0.5878 -0.809 476.6033 263.5942)" fill="#FEC047" width="5.5" height="43.1"/>
		
			<rect x="221" y="226.5" transform="matrix(-0.809 0.5878 -0.5878 -0.809 550.5656 317.3323)" fill="#FEC047" width="5.5" height="43.1"/>
		
			<rect x="249.2" y="265.4" transform="matrix(-0.809 0.5878 -0.5878 -0.809 624.5284 371.0679)" fill="#FEC047" width="5.5" height="43.1"/>
		
			<rect x="277.5" y="304.3" transform="matrix(-0.809 0.5878 -0.5878 -0.809 698.492 424.8003)" fill="#FEC047" width="5.5" height="43.1"/>
	</g>
	<g>
		<rect x="178.6" y="336.4" fill="#021C63" width="5.5" height="43.1"/>
		<rect x="178.6" y="288.4" fill="#021C63" width="5.5" height="43.1"/>
		<rect x="178.6" y="240.3" fill="#021C63" width="5.5" height="43.1"/>
		<rect x="178.6" y="192.3" fill="#021C63" width="5.5" height="43.1"/>
		<rect x="178.6" y="144.2" fill="#021C63" width="5.5" height="43.1"/>
		<rect x="178.6" y="96.1" fill="#021C63" width="5.5" height="43.1"/>
		<rect x="178.6" y="48.1" fill="#021C63" width="5.5" height="43.1"/>
		<rect x="178.6" y="0" fill="#021C63" width="5.5" height="43.1"/>
	</g>
</g>
</svg>
