<!-- Generator: Adobe Illustrator 22.1.0, SVG Export Plug-In  -->
<svg version="1.1"
	 xmlns="http://www.w3.org/2000/svg" xmlns:xlink="http://www.w3.org/1999/xlink" xmlns:a="http://ns.adobe.com/AdobeSVGViewerExtensions/3.0/"
	 x="0px" y="0px" viewBox="0 0 313.4 403" enable-background="new 0 0 313.4 403"
	 xml:space="preserve">
<defs>
</defs>
<g>
	<path fill="#FBBA3D" d="M68.4,67.8l-1.9,1.9h-8.1l-1.9-1.9V1.9L58.4,0h8.1l1.9,1.9V67.8z M76.6,11.5l-1.9-1.9V1.9L76.6,0h4.3
		c14.3,0,22.8,10.2,22.8,22.9c0,12.6-8.5,23.3-22.8,23.3h-4.3l-1.9-1.9v-7.6l1.9-1.9h3.6c6.8,0,11.6-4.8,11.6-11.8
		c0-7.3-4.8-11.5-11.6-11.5H76.6z"/>
	<path fill="#FBBA3D" d="M123.3,67.8l-1.9,1.9h-8.1l-1.9-1.9V1.9l1.9-1.9h8.1l1.9,1.9V67.8z M131.5,69.7l-1.9-1.9v-7.6l1.9-1.9h21.2
		l1.9,1.9v7.6l-1.9,1.9H131.5z"/>
	<path fill="#FBBA3D" d="M178.1,14.5h2.9l4.1,12.6l-5.4,16.5l1.9,1.9h9.5l3.2,9.5l-1.9,1.9h-17.2l-4.5,12.7h-9.6l-1.9-1.9
		L178.1,14.5z M183.5,1.9l1.9-1.9h9.5l22.5,67.8l-1.9,1.9h-9.7L183.5,1.9z"/>
	<path fill="#FBBA3D" d="M222.6,0l19.9,40.2v27.6l-1.9,1.9h-8.1l-1.9-1.9V41.3L210.4,1.9l1.9-1.9H222.6z M247.1,30.2h-2.8l-4.9-9.6
		L250.3,0h10.3l1.9,1.9L247.1,30.2z"/>
	<path fill="#FBBA3D" d="M31,151.1l-1.9,1.9H21l-1.9-1.9V85.2l1.9-1.9h8.1l1.9,1.9V151.1z M39.2,153l-1.9-1.9v-7.6l1.9-1.9h21.2
		l1.9,1.9v7.6l-1.9,1.9H39.2z"/>
	<path fill="#FBBA3D" d="M82.4,151.1l-1.9,1.9h-8.1l-1.9-1.9V85.2l1.9-1.9h8.1l1.9,1.9V151.1z M90.6,94.7l-1.9-1.9v-7.6l1.9-1.9
		h21.9l1.9,1.9v7.6l-1.9,1.9H90.6z M90.6,123.4l-1.9-1.9v-7.6l1.9-1.9h19l1.9,1.9v7.6l-1.9,1.9H90.6z M90.6,153l-1.9-1.9v-7.6
		l1.9-1.9h21.9l1.9,1.9v7.6l-1.9,1.9H90.6z"/>
	<path fill="#FBBA3D" d="M138.3,97.8h2.9l4.1,12.6l-5.4,16.5l1.9,1.9h9.5l3.2,9.5l-1.9,1.9h-17.2L131,153h-9.6l-1.9-1.9L138.3,97.8z
		 M143.7,85.2l1.9-1.9h9.5l22.5,67.8l-1.9,1.9h-9.7L143.7,85.2z"/>
	<path fill="#FBBA3D" d="M196.4,151.1l-1.9,1.9h-8.1l-1.9-1.9V85.2l1.9-1.9h8.1l1.9,1.9V151.1z M204.6,94.7l-1.9-1.9v-7.6l1.9-1.9
		h4.3c14.3,0,22.3,9.7,22.3,21.5c0,7.9-3.7,15.3-10.6,19.1l11.1,27.2l-1.9,1.9h-10.5l-10.4-26.4h-4.3l-1.9-1.9v-7.6l1.9-1.9h3.6
		c6.8,0,11.1-4.3,11.1-10.4c0-6.3-4.3-10-11.1-10H204.6z"/>
	<path fill="#FBBA3D" d="M294.7,148.3v2.8l-1.9,1.9H283l-41.3-65v-2.8l1.9-1.9h9.6L294.7,148.3z M241.8,103.1h2.9l9.1,14.5v33.5
		l-1.9,1.9h-8l-2-1.9V103.1z M294.7,133.1h-2.9l-9.1-14.4V85.2l1.9-1.9h8l2,1.9V133.1z"/>
	<path fill="#FBBA3D" d="M0,199.4c0-8.4,0.5-15.7,3.2-21.5c3.1-6.4,8.8-11.2,16.5-11.7l1.9,1.9v9.3c-3.6,0.6-6.1,2.9-7.4,5.1
		c-2.3,3.9-2.3,9.7-2.3,17v3.9c0,7.3,0,13.1,2.3,17c1.3,2.2,3.8,4.5,7.4,5.1v9.3l-1.9,1.9C12,236,6.3,231.2,3.2,224.8
		C0.5,219,0,211.7,0,203.3V199.4z M29.9,166.2c9.3,0.8,17.3,8.1,18,18.3l-1.9,1.9h-9.4c-0.5-5.1-3.7-8.4-8.6-9.1v-9.3L29.9,166.2z
		 M28,234.7v-9.3c5.1-0.7,8.5-4.4,9-9.5h9.4l1.9,1.9c-1.1,9.8-7.9,17.8-18.3,18.8L28,234.7z"/>
	<path fill="#FBBA3D" d="M69.4,234.4l-1.9,1.9h-8.1l-1.9-1.9v-65.9l1.9-1.9h8.1l1.9,1.9V234.4z M77.6,178l-1.9-1.9v-7.6l1.9-1.9h4.3
		c14.3,0,22.3,9.7,22.3,21.5c0,7.9-3.7,15.3-10.6,19.1l11.1,27.2l-1.9,1.9H92.3l-10.4-26.4h-4.3l-1.9-1.9v-7.6l1.9-1.9h3.6
		c6.8,0,11.1-4.3,11.1-10.4c0-6.3-4.3-10-11.1-10H77.6z"/>
	<path fill="#FBBA3D" d="M126.6,234.4l-1.9,1.9h-8.1l-1.9-1.9v-65.9l1.9-1.9h8.1l1.9,1.9V234.4z M134.8,178l-1.9-1.9v-7.6l1.9-1.9
		h21.9l1.9,1.9v7.6l-1.9,1.9H134.8z M134.8,206.7l-1.9-1.9v-7.6l1.9-1.9h19l1.9,1.9v7.6l-1.9,1.9H134.8z M134.8,236.3l-1.9-1.9v-7.6
		l1.9-1.9h21.9l1.9,1.9v7.6l-1.9,1.9H134.8z"/>
	<path fill="#FBBA3D" d="M182.6,181.1h2.9l4.1,12.6l-5.4,16.5l1.9,1.9h9.5l3.2,9.5l-1.9,1.9h-17.2l-4.5,12.7h-9.6l-1.9-1.9
		L182.6,181.1z M187.9,168.5l1.9-1.9h9.5l22.5,67.8l-1.9,1.9h-9.7L187.9,168.5z"/>
	<path fill="#FBBA3D" d="M217.2,178l-1.9-1.9v-7.6l1.9-1.9h44.1l1.9,1.9v7.6l-1.9,1.9H217.2z M245.2,234.4l-1.9,1.9h-8.1l-1.9-1.9
		v-48.1l1.9-1.9h8.1l1.9,1.9V234.4z"/>
	<path fill="#FBBA3D" d="M281.4,234.4l-1.9,1.9h-8.1l-1.9-1.9v-65.9l1.9-1.9h8.1l1.9,1.9V234.4z M289.6,178l-1.9-1.9v-7.6l1.9-1.9
		h21.9l1.9,1.9v7.6l-1.9,1.9H289.6z M289.6,206.7l-1.9-1.9v-7.6l1.9-1.9h19l1.9,1.9v7.6l-1.9,1.9H289.6z M289.6,236.3l-1.9-1.9v-7.6
		l1.9-1.9h21.9l1.9,1.9v7.6l-1.9,1.9H289.6z"/>
	<path fill="#FBBA3D" d="M28.7,261.3l-1.9-1.9v-7.6l1.9-1.9h44.1l1.9,1.9v7.6l-1.9,1.9H28.7z M56.7,317.7l-1.9,1.9h-8.1l-1.9-1.9
		v-48.1l1.9-1.9h8.1l1.9,1.9V317.7z"/>
	<path fill="#FBBA3D" d="M92.9,317.7l-1.9,1.9h-8.1l-1.9-1.9v-65.9l1.9-1.9h8.1l1.9,1.9V317.7z M130.7,317.7l-1.9,1.9h-8.1l-1.9-1.9
		V291h-17.7l-1.9-1.9v-7.6l1.9-1.9h17.7v-27.8l1.9-1.9h8.1l1.9,1.9V317.7z"/>
	<path fill="#FBBA3D" d="M155,317.7l-1.9,1.9H145l-1.9-1.9v-65.9l1.9-1.9h8.1l1.9,1.9V317.7z"/>
	<path fill="#FBBA3D" d="M220.5,314.9v2.8l-1.9,1.9h-9.8l-41.3-65v-2.8l1.9-1.9h9.6L220.5,314.9z M167.6,269.6h2.9l9.1,14.5v33.5
		l-1.9,1.9h-8l-2-1.9V269.6z M220.5,299.7h-2.9l-9.1-14.4v-33.5l1.9-1.9h8l2,1.9V299.7z"/>
	<path fill="#FBBA3D" d="M244.9,317.7l-1.9,1.9h-8.1l-1.9-1.9v-65.9l1.9-1.9h8.1l1.9,1.9V317.7z M254,295.7h-2.9v-16.5l19.2-29.3
		h10.6l1.9,1.9L254,295.7z M284.7,317.7l-1.9,1.9h-11.3l-11.1-22.9l5.8-9.1h2.9L284.7,317.7z"/>
	<path fill="#FBBA3D" d="M81.8,400.9l-1.9,1.9h-8.1l-1.9-1.9v-65.9l1.9-1.9h8.1l1.9,1.9V400.9z M90,344.6l-1.9-1.9v-7.6l1.9-1.9
		h20.9l1.9,1.9v7.6l-1.9,1.9H90z M90,374.1l-1.9-1.9v-7.6l1.9-1.9h18l1.9,1.9v7.6l-1.9,1.9H90z"/>
	<path fill="#FBBA3D" d="M131,369.9c0,9.8,1.9,20.1,10.7,21.9v9.5l-1.8,1.8c-16.8-2.3-20.8-19.5-20.8-33.1V366
		c0-15.3,4.7-30.8,20.8-33.1l1.8,1.8v9.5c-9.5,2-10.7,14-10.7,21.9V369.9z M158.7,366c0-7.8-1.1-19.9-10.7-21.9v-9.5l1.8-1.8
		c16,2.2,20.8,17.9,20.8,33.1v3.9c0,13.7-4,30.7-20.7,33.1l-1.9-1.8v-9.5c8.8-1.7,10.7-11.9,10.7-21.9V366z"/>
	<path fill="#FBBA3D" d="M192.6,400.9l-1.9,1.9h-8.1l-1.9-1.9v-65.9l1.9-1.9h8.1l1.9,1.9V400.9z"/>
	<path fill="#FBBA3D" d="M216.9,400.9l-1.9,1.9h-8.1l-1.9-1.9v-65.9l1.9-1.9h8.1l1.9,1.9V400.9z M225.1,402.9l-1.9-1.9v-7.6l1.9-1.9
		h21.2l1.9,1.9v7.6l-1.9,1.9H225.1z"/>
</g>
</svg>
