<!-- Generator: Adobe Illustrator 22.1.0, SVG Export Plug-In  -->
<svg version="1.1"
	 xmlns="http://www.w3.org/2000/svg" xmlns:xlink="http://www.w3.org/1999/xlink" xmlns:a="http://ns.adobe.com/AdobeSVGViewerExtensions/3.0/"
	 x="0px" y="0px" width="127.7px" height="568.6px" viewBox="0 0 127.7 568.6" enable-background="new 0 0 127.7 568.6"
	 xml:space="preserve">
<defs>
</defs>
<g>
	<path fill="#FFFFFF" d="M67.4,0c15.2,0,28.4,0.9,39,5.9c11.6,5.5,20.3,15.9,21.3,30l-3.5,3.5h-16.8c-1-6.6-5.2-11.1-9.2-13.5
		c-7.1-4.2-17.7-4.2-30.8-4.2h-7.1c-13.2,0-23.7,0-30.8,4.2c-4,2.4-8.1,6.9-9.2,13.5H3.5L0,35.9c1-14,9.7-24.4,21.3-30
		C31.9,0.9,45,0,60.3,0H67.4z M127.7,54.2C126.3,71,113,85.6,94.4,86.8L91,83.3v-17c9.2-0.9,15.2-6.8,16.5-15.6h16.8L127.7,54.2z
		 M3.5,50.8h16.8c1.2,9.2,8,15.4,17.3,16.3v17l-3.5,3.5C16.3,85.4,1.9,73.1,0,54.2L3.5,50.8z"/>
	<path fill="#FFFFFF" d="M4,126l-3.5-3.5v-14.7l3.5-3.5h119.5l3.5,3.5v14.7l-3.5,3.5H4z M106.2,140.8l3.5-3.5h13.9l3.5,3.5v7.8
		c0,26-17.7,40.5-39,40.5c-14.4,0-27.7-6.8-34.7-19.2L4,190.1l-3.5-3.5v-19.1l47.8-18.9v-7.8l3.5-3.5h13.9l3.5,3.5v6.6
		c0,12.3,7.8,20.1,18.9,20.1c11.4,0,18.2-7.8,18.2-20.1V140.8z"/>
	<path fill="#FFFFFF" d="M4,229.7l-3.5-3.5v-14.7l3.5-3.5h119.5l3.5,3.5v14.7l-3.5,3.5H4z M106.2,244.6l3.5-3.5h13.9l3.5,3.5v39.7
		l-3.5,3.5h-13.9l-3.5-3.5V244.6z M54.2,244.6l3.5-3.5h13.9l3.5,3.5v34.5l-3.5,3.5H57.7l-3.5-3.5V244.6z M0.5,244.6l3.5-3.5h13.9
		l3.5,3.5v39.7l-3.5,3.5H4l-3.5-3.5V244.6z"/>
	<path fill="#FFFFFF" d="M100.7,331.2v5.2l-22.9,7.4l-30-9.9l-3.5,3.5v17.3L27,360.7l-3.5-3.5V326l-23-8.1v-17.5l3.5-3.5
		L100.7,331.2z M123.5,340.9l3.5,3.5v17.2L4,402.5L0.5,399v-17.7L123.5,340.9z"/>
	<path fill="#FFFFFF" d="M106.2,394.1l3.5-3.5h13.9l3.5,3.5v80l-3.5,3.5h-13.9l-3.5-3.5V394.1z M4,444.9l-3.5-3.5v-14.7l3.5-3.5
		h87.3l3.5,3.5v14.7l-3.5,3.5H4z"/>
	<path fill="#FFFFFF" d="M4,510.6l-3.5-3.5v-14.7l3.5-3.5h119.5l3.5,3.5v14.7l-3.5,3.5H4z M106.2,525.5l3.5-3.5h13.9l3.5,3.5v39.7
		l-3.5,3.5h-13.9l-3.5-3.5V525.5z M54.2,525.5l3.5-3.5h13.9l3.5,3.5v34.5l-3.5,3.5H57.7l-3.5-3.5V525.5z M0.5,525.5L4,522h13.9
		l3.5,3.5v39.7l-3.5,3.5H4l-3.5-3.5V525.5z"/>
</g>
</svg>
