<!-- Generator: Adobe Illustrator 22.1.0, SVG Export Plug-In  -->
<svg version="1.1"
	 xmlns="http://www.w3.org/2000/svg" xmlns:xlink="http://www.w3.org/1999/xlink" xmlns:a="http://ns.adobe.com/AdobeSVGViewerExtensions/3.0/"
	 x="0px" y="0px" viewBox="0 0 127.3 323.6" enable-background="new 0 0 127.3 323.6"
	 xml:space="preserve">
<defs>
</defs>
<g>
	<path fill="#DDD7D1" d="M3.8,21.7l-3.5-3.5V3.5L3.8,0h119.5l3.5,3.5v14.7l-3.5,3.5H3.8z M106,36.6l3.5-3.5h13.9l3.5,3.5v37.9
		l-3.5,3.5h-13.9l-3.5-3.5V36.6z M52.5,36.6l3.5-3.5h13.9l3.5,3.5v32.7l-3.5,3.5H56l-3.5-3.5V36.6z"/>
	<path fill="#DDD7D1" d="M60.1,110.9c-17.8,0-36.6,3.5-39.7,19.4H3.3L0,127c4.2-30.5,35.3-37.8,60.1-37.8h7.1
		c27.7,0,56,8.5,60.1,37.8l-3.3,3.3h-17.2c-3.6-17.3-25.5-19.4-39.7-19.4H60.1z M67.2,161.1c14.2,0,36-2.1,39.7-19.4h17.2l3.3,3.3
		c-4,29.1-32.4,37.8-60.1,37.8h-7.1c-24.8,0-55.8-7.3-60.1-37.6l3.3-3.5h17.2c3.1,15.9,21.7,19.4,39.7,19.4H67.2z"/>
	<path fill="#DDD7D1" d="M3.8,222.6l-3.5-3.5v-14.7l3.5-3.5h119.5l3.5,3.5v14.7l-3.5,3.5H3.8z"/>
	<path fill="#DDD7D1" d="M3.8,266.8l-3.5-3.5v-14.7l3.5-3.5h119.5l3.5,3.5v14.7l-3.5,3.5H3.8z M0.3,281.7l3.5-3.5h13.9l3.5,3.5v38.5
		l-3.5,3.5H3.8l-3.5-3.5V281.7z"/>
</g>
</svg>
