<!-- Generator: Adobe Illustrator 22.1.0, SVG Export Plug-In  -->
<svg version="1.1"
	 xmlns="http://www.w3.org/2000/svg" xmlns:xlink="http://www.w3.org/1999/xlink" xmlns:a="http://ns.adobe.com/AdobeSVGViewerExtensions/3.0/"
	 x="0px" y="0px" width="126.5px" height="467.9px" viewBox="0 0 126.5 467.9" enable-background="new 0 0 126.5 467.9"
	 xml:space="preserve">
<defs>
</defs>
<g>
	<path fill="#DDD7D1" d="M105.7,3.5l3.5-3.5H123l3.5,3.5v80L123,87h-13.9l-3.5-3.5V3.5z M3.5,54.2L0,50.8V36l3.5-3.5h87.3l3.5,3.5
		v14.7l-3.5,3.5H3.5z"/>
	<path fill="#DDD7D1" d="M3.5,119.9L0,116.4v-14.7l3.5-3.5H123l3.5,3.5v14.7l-3.5,3.5H3.5z M3.5,188.5L0,185v-14.7l3.5-3.5h48.3v-32
		l3.5-3.5h13.9l3.5,3.5v32H123l3.5,3.5V185l-3.5,3.5H3.5z"/>
	<path fill="#DDD7D1" d="M3.5,232.7L0,229.2v-14.7l3.5-3.5H123l3.5,3.5v14.7l-3.5,3.5H3.5z"/>
	<path fill="#DDD7D1" d="M8.5,351.5h-5L0,348.1v-17.8l118-75h5l3.5,3.5v17.5L8.5,351.5z M90.6,255.5v5.2l-26.3,16.5H3.5L0,273.7
		v-14.6l3.5-3.6H90.6z M36,351.5v-5.2l26.2-16.5H123l3.5,3.5v14.6l-3.5,3.6H36z"/>
	<path fill="#DDD7D1" d="M3.5,395.7L0,392.2v-14.7l3.5-3.5H123l3.5,3.5v14.7l-3.5,3.5H3.5z M43.3,412.3v-5.2h30l53.2,34.8v19.2
		l-3.5,3.5L43.3,412.3z M3.5,467.9L0,464.5V444l41.6-20.1L58,434.5v5.2L3.5,467.9z"/>
</g>
</svg>
