<!-- Generator: Adobe Illustrator 22.1.0, SVG Export Plug-In  -->
<svg version="1.1"
	 xmlns="http://www.w3.org/2000/svg" xmlns:xlink="http://www.w3.org/1999/xlink" xmlns:a="http://ns.adobe.com/AdobeSVGViewerExtensions/3.0/"
	 x="0px" y="0px" width="333.7px" height="333.7px" viewBox="0 0 333.7 333.7" enable-background="new 0 0 333.7 333.7"
	 xml:space="preserve">
<defs>
</defs>
<path fill="#FFFFFF" d="M166.8,333.7c-20.5,0-40.6-3.7-59.6-11l4.2-11.1c17.6,6.8,36.3,10.2,55.3,10.2c9.1,0,18.1-0.8,27-2.3
	l2.1,11.7C186.3,332.8,176.6,333.7,166.8,333.7z M221.4,324.6l-3.9-11.2c26.5-9.1,50-25.4,68.1-46.9l9.1,7.6
	C275.2,297.3,249.8,314.7,221.4,324.6z M83.5,311.4c-26.2-15.1-47.8-37-62.5-63.4l10.4-5.8c13.7,24.5,33.7,44.9,58,58.9L83.5,311.4z
	 M309.9,252.6l-10.2-6.1c14.4-24,22-51.5,22-79.7v-0.4h11.9v0.4C333.7,197.1,325.5,226.8,309.9,252.6z M10.1,224.1
	C3.4,205.7,0,186.5,0,166.8c0-10.6,1-21.2,3-31.5l11.7,2.2c-1.8,9.6-2.8,19.4-2.8,29.3c0,18.3,3.1,36.1,9.4,53.1L10.1,224.1z
	 M319.8,142.1c-4.4-27.6-16.4-53.6-34.5-75.1l9.1-7.7c19.5,23.2,32.4,51.1,37.1,80.9L319.8,142.1z M21.1,114L10,109.9
	c10.3-28.3,28.1-53.4,51.6-72.5l7.5,9.2C47.2,64.4,30.7,87.7,21.1,114z M268.2,49.6c-21.3-18.4-47.1-30.7-74.7-35.4l2-11.7
	c29.7,5.1,57.5,18.3,80.4,38.2L268.2,49.6z M89.2,32.7l-6-10.3C108.5,7.8,137.4,0,166.8,0c0.8,0,1.7,0,2.5,0l-0.2,11.9
	c-0.8,0-1.5,0-2.3,0C139.5,11.9,112.7,19.1,89.2,32.7z"/>
</svg>
