<!-- Generator: Adobe Illustrator 22.1.0, SVG Export Plug-In  -->
<svg version="1.1"
	 xmlns="http://www.w3.org/2000/svg" xmlns:xlink="http://www.w3.org/1999/xlink" xmlns:a="http://ns.adobe.com/AdobeSVGViewerExtensions/3.0/"
	 x="0px" y="0px" viewBox="0 0 344.5 432.3" enable-background="new 0 0 344.5 432.3"
	 xml:space="preserve">
<defs>
</defs>
<g>
	<g>
		<path d="M128.1,0c-17.3,0-31.4,14-31.4,31.4s14,31.4,31.4,31.4c17.3,0,31.4-14,31.4-31.4S145.4,0,128.1,0z M128.1,50
			c-10.3,0-18.6-8.3-18.6-18.6s8.3-18.6,18.6-18.6c10.3,0,18.6,8.3,18.6,18.6S138.4,50,128.1,50z"/>
		<path fill="#FF5049" d="M216.7,113.5c-17.3,0-31.4,14-31.4,31.4c0,17.3,14,31.4,31.4,31.4c17.3,0,31.4-14,31.4-31.4
			C248.1,127.5,234,113.5,216.7,113.5z M216.7,163.5c-10.3,0-18.6-8.3-18.6-18.6c0-10.3,8.3-18.6,18.6-18.6
			c10.3,0,18.6,8.3,18.6,18.6C235.3,155.1,227,163.5,216.7,163.5z"/>
		<rect x="34.6" y="47.6" transform="matrix(-1.836970e-16 1 -1 -1.836970e-16 126.9902 47.5929)" width="10.2" height="79.3"/>
		<rect x="123" y="47.6" transform="matrix(-1.836970e-16 1 -1 -1.836970e-16 215.3775 -40.7943)" width="10.2" height="79.3"/>
		<rect x="211.4" y="47.6" transform="matrix(-1.836970e-16 1 -1 -1.836970e-16 303.7647 -129.1817)" width="10.2" height="79.3"/>
		<rect x="299.8" y="47.6" transform="matrix(-1.836970e-16 1 -1 -1.836970e-16 392.152 -217.569)" width="10.2" height="79.3"/>
		<rect x="34.6" y="161.1" transform="matrix(-1.836970e-16 1 -1 -1.836970e-16 240.485 161.0878)" width="10.2" height="79.3"/>
		<rect x="123" y="161.1" transform="matrix(-1.836970e-16 1 -1 -1.836970e-16 328.8723 72.7004)" width="10.2" height="79.3"/>
		<rect x="211.4" y="161.1" transform="matrix(-1.836970e-16 1 -1 -1.836970e-16 417.2596 -15.6868)" width="10.2" height="79.3"/>
		<rect x="299.8" y="161.1" transform="matrix(-1.836970e-16 1 -1 -1.836970e-16 505.6469 -104.0742)" width="10.2" height="79.3"/>
		<path fill="#FF5049" d="M102,114.1h12.5v24.2h27.6v-24.2h12.5v61.2h-12.5V150h-27.6v25.3H102V114.1z"/>
	</g>
	<g>
		<rect x="34.6" y="274" transform="matrix(-1.836970e-16 1 -1 -1.836970e-16 353.3661 273.9689)" width="10.2" height="79.3"/>
		<rect x="123" y="274" transform="matrix(-1.836970e-16 1 -1 -1.836970e-16 441.7534 185.5816)" width="10.2" height="79.3"/>
		<rect x="211.4" y="274" transform="matrix(-1.836970e-16 1 -1 -1.836970e-16 530.1407 97.1943)" width="10.2" height="79.3"/>
		<rect x="299.8" y="274" transform="matrix(-1.836970e-16 1 -1 -1.836970e-16 618.528 8.807)" width="10.2" height="79.3"/>
		<rect x="34.6" y="387.5" transform="matrix(-1.836970e-16 1 -1 -1.836970e-16 466.8609 387.4637)" width="10.2" height="79.3"/>
		<rect x="123" y="387.5" transform="matrix(-1.836970e-16 1 -1 -1.836970e-16 555.2482 299.0764)" width="10.2" height="79.3"/>
		<rect x="211.4" y="387.5" transform="matrix(-1.836970e-16 1 -1 -1.836970e-16 643.6355 210.6891)" width="10.2" height="79.3"/>
		<rect x="299.8" y="387.5" transform="matrix(-1.836970e-16 1 -1 -1.836970e-16 732.0228 122.3018)" width="10.2" height="79.3"/>
		<polygon fill="#FF5049" points="66.3,227 56.6,267.1 46.4,227 32.9,227 22.8,266.8 13.1,227 0,227 15.3,288.2 30.1,288.2 
			39.7,249.8 49.3,288.2 64.1,288.2 79.3,227 		"/>
		<path d="M192.3,227h27.9c12,0,19.8,8,19.8,19.2c0,8.2-4,14.6-10.9,17.6l11.6,24.3h-13.3l-10.6-22.7h-12v22.7h-12.5V227z
			 M219.3,253.8c5.2,0,8.4-2.7,8.4-7.6c0-4.8-3.2-7.5-8.4-7.5h-14.6v15.1H219.3z"/>
		<path d="M278,0.6h12.1v24.2l24.9-24.2h16.8l-27.7,26.7l27.1,34.5h-15.6l-20.4-26l-5.1,5.1v20.9H278V0.6z"/>
		<path d="M26,377.8c1.9,8.7,7.3,13.5,14.9,13.5c7.6,0,11.9-3.3,11.9-8.3c0-3.8-3.8-6.5-13.3-7.4c-14.2-1.4-21.6-7.7-21.6-19.1
			c0-10.2,9.4-17.3,22.2-17.3c11.6,0,20.5,6.8,23.1,17.1l-11.5,4.8c-1.6-6.2-6-10.1-11.5-10.1c-5.9,0-10,2.4-10,5.8
			c0,3.7,2.4,5.8,10.7,6.6c15.6,1.6,24.1,7.4,24.1,19.2c0,12.1-9.4,20.4-24.1,20.4c-14,0-23.6-8-26.2-21L26,377.8z"/>
		<path d="M281.4,340.5H309c12.3,0,19.8,7.9,19.8,19.2c0,11.4-7.3,19.3-19.8,19.3h-15.5v22.7h-12.1V340.5z M308.1,367.3
			c5.4,0,8.4-2.7,8.4-7.6c0-4.8-3-7.5-8.4-7.5h-14.6v15.1H308.1z"/>
	</g>
</g>
</svg>
