<!-- Generator: Adobe Illustrator 22.1.0, SVG Export Plug-In  -->
<svg version="1.1"
	 xmlns="http://www.w3.org/2000/svg" xmlns:xlink="http://www.w3.org/1999/xlink" xmlns:a="http://ns.adobe.com/AdobeSVGViewerExtensions/3.0/"
	 x="0px" y="0px" viewBox="0 0 307.5 312.5" enable-background="new 0 0 307.5 312.5"
	 xml:space="preserve">
<defs>
</defs>
<g>
	<g>
		
			<rect x="30.8" y="-30.8" transform="matrix(-1.836970e-16 1 -1 -1.836970e-16 39.9507 -30.8458)" fill="#021C63" width="9.1" height="70.8"/>
		
			<rect x="109.8" y="-30.8" transform="matrix(-1.836970e-16 1 -1 -1.836970e-16 118.8606 -109.7557)" fill="#021C63" width="9.1" height="70.8"/>
		
			<rect x="188.7" y="-30.8" transform="matrix(-1.836970e-16 1 -1 -1.836970e-16 197.7704 -188.6655)" fill="#021C63" width="9.1" height="70.8"/>
		
			<rect x="267.6" y="-30.8" transform="matrix(-1.836970e-16 1 -1 -1.836970e-16 276.6804 -267.5753)" fill="#021C63" width="9.1" height="70.8"/>
		
			<rect x="30.8" y="70.5" transform="matrix(-1.836970e-16 1 -1 -1.836970e-16 141.276 70.4794)" fill="#021C63" width="9.1" height="70.8"/>
		
			<rect x="109.8" y="70.5" transform="matrix(-1.836970e-16 1 -1 -1.836970e-16 220.1859 -8.4305)" fill="#021C63" width="9.1" height="70.8"/>
		
			<rect x="188.7" y="70.5" transform="matrix(-1.836970e-16 1 -1 -1.836970e-16 299.0956 -87.3402)" fill="#021C63" width="9.1" height="70.8"/>
		
			<rect x="267.6" y="70.5" transform="matrix(-1.836970e-16 1 -1 -1.836970e-16 378.0056 -166.2502)" fill="#021C63" width="9.1" height="70.8"/>
	</g>
	<g>
		
			<rect x="30.8" y="171.3" transform="matrix(-1.836970e-16 1 -1 -1.836970e-16 242.0533 171.2567)" fill="#021C63" width="9.1" height="70.8"/>
		
			<rect x="109.8" y="171.3" transform="matrix(-1.836970e-16 1 -1 -1.836970e-16 320.9631 92.3468)" fill="#021C63" width="9.1" height="70.8"/>
		
			<rect x="188.7" y="171.3" transform="matrix(-1.836970e-16 1 -1 -1.836970e-16 399.873 13.437)" fill="#021C63" width="9.1" height="70.8"/>
		
			<rect x="267.6" y="171.3" transform="matrix(-1.836970e-16 1 -1 -1.836970e-16 478.7828 -65.4728)" fill="#021C63" width="9.1" height="70.8"/>
		
			<rect x="30.8" y="272.6" transform="matrix(-1.836970e-16 1 -1 -1.836970e-16 343.3784 272.5819)" fill="#021C63" width="9.1" height="70.8"/>
		
			<rect x="109.8" y="272.6" transform="matrix(-1.836970e-16 1 -1 -1.836970e-16 422.2884 193.672)" fill="#021C63" width="9.1" height="70.8"/>
		
			<rect x="188.7" y="272.6" transform="matrix(-1.836970e-16 1 -1 -1.836970e-16 501.1982 114.7623)" fill="#021C63" width="9.1" height="70.8"/>
		
			<rect x="267.6" y="272.6" transform="matrix(-1.836970e-16 1 -1 -1.836970e-16 580.108 35.8523)" fill="#021C63" width="9.1" height="70.8"/>
	</g>
</g>
</svg>
