<!-- Generator: Adobe Illustrator 22.1.0, SVG Export Plug-In  -->
<svg version="1.1"
	 xmlns="http://www.w3.org/2000/svg" xmlns:xlink="http://www.w3.org/1999/xlink" xmlns:a="http://ns.adobe.com/AdobeSVGViewerExtensions/3.0/"
	 x="0px" y="0px" viewBox="0 0 322 52.5" style="enable-background:new 0 0 322 52.5;"
	 xml:space="preserve">
<style type="text/css">
	.st0{fill:#FFFFFF;}
</style>
<defs>
</defs>
<path class="st0" d="M275.7,8.8c-1,0-1.8,0.8-1.8,1.8c0,1,0.8,1.8,1.8,1.8c1,0,1.8-0.8,1.8-1.8C277.5,9.6,276.7,8.8,275.7,8.8
	 M313.3,9.4v3.1h5.2v3.8c-1.3,0.9-3,1.6-4.9,1.6c-4.2,0-7-3.1-7-7.3v-0.1c0-3.9,2.9-7.2,6.6-7.2c2.6,0,4.2,0.8,5.7,2.2l2.3-2.7
	C319.2,1,317,0,313.4,0c-6.2,0-10.6,4.9-10.6,10.6v0.1c0,6,4.2,10.5,10.6,10.5c3.6,0,6.5-1.5,8.5-3.2V9.4H313.3z M248.5,17.6h-11.7
	v-5.5H247V8.9h-10.3V3.6h11.6V0.4h-15.2v20.5h15.3V17.6z M207.4,0.4h-3.6v20.5h3.6V0.4z M175.3,14.5l-11-14.2H161v20.5h3.5V6.3
	l11.3,14.6h3V0.4h-3.5V14.5z M118.1,10.5c0-4,2.8-7.2,6.9-7.2c4.1,0,7,3.3,7,7.3v0.1c0,4-2.8,7.2-6.9,7.2
	C121,17.9,118.1,14.6,118.1,10.5L118.1,10.5z M125,21.2c6.3,0,10.7-4.8,10.7-10.6v-0.1c0-5.8-4.4-10.5-10.7-10.5
	c-6.3,0-10.7,4.8-10.7,10.6v0.1C114.3,16.4,118.7,21.2,125,21.2 M74.1,3.6h4c4.3,0,7.1,3,7.1,7v0.1c0,4-2.8,6.9-7.1,6.9h-4V3.6z
	 M89.1,10.6L89.1,10.6c0-5.8-4.4-10.2-10.9-10.2h-7.6v20.5h7.6C84.6,20.8,89.1,16.4,89.1,10.6 M41.7,20.8h3.6V0.4h-3.6V20.8z M9.3,9
	C5.4,8,4.4,7.3,4.4,5.7V5.7c0-1.3,1.2-2.4,3.3-2.4c1.9,0,3.7,0.7,5.6,2.1l1.9-2.7C13.2,1,10.8,0.1,7.8,0.1c-4.1,0-7,2.4-7,5.9v0.1
	c0,3.8,2.5,5.1,6.8,6.1c3.8,0.9,4.6,1.7,4.6,3.1v0.1c0,1.6-1.4,2.6-3.6,2.6c-2.5,0-4.5-1-6.5-2.7L0,17.9c2.5,2.2,5.4,3.3,8.5,3.3
	c4.3,0,7.3-2.3,7.3-6.1V15C15.9,11.6,13.6,10,9.3,9 M193,43.7h3.3v8.7h1.8v-8.7h3.3V42H193V43.7z M206,52.4h1.8V42H206V52.4z
	 M172.1,50.9c-2,0-3.4-1.7-3.4-3.7v0c0-2,1.4-3.7,3.4-3.7c1.2,0,2.1,0.5,2.9,1.3l1.2-1.4c-1-0.9-2.2-1.6-4.1-1.6
	c-3.1,0-5.4,2.4-5.4,5.4v0c0,3,2.3,5.3,5.3,5.3c1.9,0,3.1-0.7,4.2-1.8l-1.2-1.2C174.2,50.3,173.4,50.9,172.1,50.9 M246.8,46.3
	c-2-0.5-2.5-0.8-2.5-1.6v0c0-0.7,0.6-1.2,1.7-1.2c0.9,0,1.9,0.4,2.8,1.1l1-1.4c-1.1-0.8-2.3-1.3-3.8-1.3c-2.1,0-3.5,1.2-3.5,3v0
	c0,1.9,1.2,2.6,3.5,3.1c1.9,0.4,2.3,0.8,2.3,1.6v0c0,0.8-0.7,1.3-1.8,1.3c-1.3,0-2.3-0.5-3.3-1.4l-1.1,1.3c1.2,1.1,2.7,1.7,4.3,1.7
	c2.2,0,3.7-1.2,3.7-3.1v0C250.1,47.7,249,46.9,246.8,46.3 M221.7,47.2c0,2-1.4,3.7-3.5,3.7s-3.5-1.7-3.5-3.7v0c0-2,1.4-3.7,3.5-3.7
	S221.7,45.2,221.7,47.2L221.7,47.2z M218.2,41.8c-3.2,0-5.4,2.4-5.4,5.4v0c0,2.9,2.2,5.3,5.4,5.3c3.2,0,5.4-2.4,5.4-5.4v0
	C223.6,44.2,221.4,41.8,218.2,41.8 M235.7,49.2l-5.6-7.2h-1.7v10.4h1.8V45l5.7,7.4h1.5V42h-1.8V49.2z M183.5,48.2l1.8-4.2l1.8,4.2
	H183.5z M184.4,41.9l-4.6,10.5h1.9l1.1-2.5h4.9l1.1,2.5h1.9l-4.6-10.5H184.4z M121.4,46.9l-3.2-4.9h-1.9v10.4h1.8v-7.4l3.2,4.9h0.1
	l3.3-4.9v7.4h1.8V42h-1.9L121.4,46.9z M94.1,47.2c0,2-1.4,3.7-3.5,3.7c-2.1,0-3.5-1.7-3.5-3.7v0c0-2,1.4-3.7,3.5-3.7
	S94.1,45.2,94.1,47.2L94.1,47.2z M90.6,41.8c-3.2,0-5.4,2.4-5.4,5.4v0c0,2.9,2.2,5.3,5.4,5.3c3.2,0,5.4-2.4,5.4-5.4v0
	C96,44.2,93.8,41.8,90.6,41.8 M160,52.4h1.8V42H160V52.4z M77.2,50.9c-2,0-3.4-1.7-3.4-3.7v0c0-2,1.4-3.7,3.4-3.7
	c1.2,0,2.1,0.5,2.9,1.3l1.2-1.4c-1-0.9-2.2-1.6-4.1-1.6c-3.1,0-5.4,2.4-5.4,5.4v0c0,3,2.3,5.3,5.3,5.3c1.9,0,3.1-0.7,4.2-1.8
	l-1.2-1.2C79.3,50.3,78.5,50.9,77.2,50.9 M152.8,49.2l-5.6-7.2h-1.7v10.4h1.8V45l5.7,7.4h1.5V42h-1.8V49.2z M105.9,46.9l-3.2-4.9
	h-1.9v10.4h1.8v-7.4l3.2,4.9h0.1l3.3-4.9v7.4h1.8V42h-1.9L105.9,46.9z M138.7,48c0,1.9-1,2.9-2.6,2.9c-1.6,0-2.6-1-2.6-3V42h-1.8v6
	c0,3,1.7,4.6,4.4,4.6c2.7,0,4.5-1.6,4.5-4.7V42h-1.8V48z"/>
</svg>
