<!-- Generator: Adobe Illustrator 23.0.1, SVG Export Plug-In  -->
<svg version="1.1" xmlns="http://www.w3.org/2000/svg" xmlns:xlink="http://www.w3.org/1999/xlink" x="0px" y="0px"
	 width="161.395px" height="33.376px" viewBox="0 0 161.395 33.376" enable-background="new 0 0 161.395 33.376"
	 xml:space="preserve">
<defs>
</defs>
<polygon fill="#F5F2EB" points="142.274,33.144 137.472,33.144 137.472,0.285 144.562,0.285 146.459,14.244 146.459,0.272 
	151.261,0.272 151.261,33.065 144.171,33.065 142.274,19.108 "/>
<path fill="#F5F2EB" d="M61.797,33.376c-3.218,0-5.837-2.618-5.837-5.836v-6.344h4.802v6.344c0,0.561,0.474,1.035,1.035,1.035
	c0.561,0,1.035-0.474,1.035-1.035v-6.715c-0.445-0.562-1.747-1.629-2.556-2.292c-2.411-1.975-4.315-3.535-4.315-5.617v-7.04
	c0-3.218,2.618-5.836,5.837-5.836c3.218,0,5.836,2.618,5.836,5.836v6.344h-4.802V5.877c0-0.561-0.474-1.035-1.035-1.035
	c-0.561,0-1.035,0.474-1.035,1.035v6.651c0.445,0.562,1.747,1.628,2.556,2.291c2.411,1.975,4.315,3.535,4.315,5.617v7.104
	C67.633,30.758,65.015,33.376,61.797,33.376z M62.942,20.984L62.942,20.984L62.942,20.984z"/>
<path fill="#F5F2EB" d="M26.01,33.376c-3.218,0-5.837-2.618-5.837-5.836V5.836C20.173,2.618,22.792,0,26.01,0
	c3.218,0,5.836,2.618,5.836,5.836v6.434h-4.802V5.836c0-0.561-0.474-1.035-1.035-1.035c-0.561,0-1.035,0.474-1.035,1.035V27.54
	c0,0.561,0.474,1.035,1.035,1.035c0.561,0,1.035-0.474,1.035-1.035v-8.463H26.01v-4.802h5.836V27.54
	C31.846,30.758,29.228,33.376,26.01,33.376z"/>
<polygon fill="#F5F2EB" points="6.742,0.207 6.742,14.275 4.802,14.275 4.802,0.207 0,0.207 0,33.144 4.802,33.144 4.802,19.077 
	6.742,19.077 6.742,33.144 11.544,33.144 11.544,0.207 "/>
<polygon fill="#F5F2EB" points="40.498,0.207 40.498,14.275 38.557,14.275 38.557,0.207 33.755,0.207 33.755,33.144 38.557,33.144 
	38.557,19.077 40.498,19.077 40.498,33.144 45.299,33.144 45.299,0.207 "/>
<polygon fill="#F5F2EB" points="54.418,5.028 54.418,0.226 47.208,0.226 47.208,33.143 54.418,33.143 54.418,28.341 52.01,28.341 
	52.01,19.078 53.694,19.078 53.694,14.276 52.01,14.276 52.01,5.028 "/>
<polygon fill="#F5F2EB" points="77.961,0.204 69.425,0.204 69.425,5.005 71.292,5.005 71.292,33.144 76.094,33.144 76.094,5.005 
	77.961,5.005 "/>
<polygon fill="#F5F2EB" points="161.395,0.204 152.859,0.204 152.859,5.005 154.726,5.005 154.726,33.144 159.528,33.144 
	159.528,5.005 161.395,5.005 "/>
<path fill="#F5F2EB" d="M88.14,33.144h-4.802V0.235h6.046c3.218,0,5.836,2.618,5.836,5.836V17.89c0,3.218-2.618,5.836-5.836,5.836
	H88.14V33.144z M88.14,18.925h1.245c0.561,0,1.035-0.474,1.035-1.035V6.072c0-0.561-0.474-1.035-1.035-1.035H88.14V18.925z"/>
<rect x="13.453" y="9.479" fill="#F5F2EB" width="4.802" height="23.665"/>
<path fill="#F5F2EB" d="M15.854,5.768c1.589,0,2.878-1.288,2.878-2.878c0-1.589-1.288-2.878-2.878-2.878
	c-1.589,0-2.761,1.288-2.761,2.878C13.093,4.48,14.264,5.768,15.854,5.768z"/>
<rect x="130.956" y="9.479" fill="#F5F2EB" width="4.802" height="23.665"/>
<path fill="#F5F2EB" d="M136.235,2.891c0,1.589-1.288,2.878-2.878,2.878c-1.589,0-2.761-1.288-2.761-2.878
	c0-1.589,1.172-2.878,2.761-2.878C134.946,0.013,136.235,1.301,136.235,2.891z"/>
<path fill="#F5F2EB" d="M112.998,33.287c-9.16,0-16.613-7.452-16.613-16.613c0-9.16,7.452-16.613,16.613-16.613
	c9.16,0,16.613,7.453,16.613,16.613C129.611,25.834,122.159,33.287,112.998,33.287z M112.998,4.863
	c-6.513,0-11.811,5.299-11.811,11.811s5.298,11.811,11.811,11.811c6.513,0,11.811-5.298,11.811-11.811S119.511,4.863,112.998,4.863z
	"/>
</svg>
