<!-- Generator: Adobe Illustrator 22.1.0, SVG Export Plug-In  -->
<svg version="1.1"
	 xmlns="http://www.w3.org/2000/svg" xmlns:xlink="http://www.w3.org/1999/xlink" xmlns:a="http://ns.adobe.com/AdobeSVGViewerExtensions/3.0/"
	 x="0px" y="0px" viewBox="0 0 84.1 105.3" enable-background="new 0 0 84.1 105.3"
	 xml:space="preserve">
<defs>
</defs>
<g>
	<g>
		<rect x="6" y="79.3" fill="#FEC047" width="72.2" height="8.9"/>
		<polygon fill="#021C63" points="22.4,70.4 9.1,0 0,0 13.3,70.4 		"/>
		<polygon fill="#FF5049" points="36.8,3 24.1,70.4 33.1,70.4 41.4,27 		"/>
		<polygon fill="#FEB7C4" points="60.1,70.4 46.7,0 37.6,0 51,70.4 		"/>
		<polygon fill="#006043" points="75,0 61.7,70.4 70.8,70.4 84.1,0 		"/>
	</g>
	<g>
		<path fill="#FF5049" d="M15.8,97.5c-2.1,0-3.9,1.7-3.9,3.9c0,2.1,1.7,3.9,3.9,3.9c2.1,0,3.9-1.7,3.9-3.9
			C19.7,99.2,17.9,97.5,15.8,97.5z M15.8,103.6c-1.3,0-2.3-1-2.3-2.3c0-1.3,1-2.3,2.3-2.3c1.3,0,2.3,1,2.3,2.3
			C18.1,102.6,17.1,103.6,15.8,103.6z"/>
		<path fill="#FF5049" d="M70.3,97.5c-2.1,0-3.9,1.7-3.9,3.9c0,2.1,1.7,3.9,3.9,3.9s3.9-1.7,3.9-3.9C74.2,99.2,72.5,97.5,70.3,97.5z
			 M70.3,103.6c-1.3,0-2.3-1-2.3-2.3c0-1.3,1-2.3,2.3-2.3c1.3,0,2.3,1,2.3,2.3C72.6,102.6,71.6,103.6,70.3,103.6z"/>
		<polygon fill="#021C63" points="8.2,97.5 7,102.4 5.7,97.5 4.1,97.5 2.8,102.4 1.6,97.5 0,97.5 1.9,104.6 3.7,104.6 4.9,99.9 
			6.1,104.6 7.9,104.6 9.8,97.5 		"/>
		<path fill="#FEB7C4" d="M23.7,97.6h3.4c1.5,0,2.4,1,2.4,2.4c0,1-0.5,1.8-1.3,2.2l1.4,3H28l-1.3-2.8h-1.5v2.8h-1.5V97.6z M27,100.9
			c0.6,0,1-0.3,1-0.9c0-0.6-0.4-0.9-1-0.9h-1.8v1.9H27z"/>
		<path fill="#006043" d="M34.3,97.6h1.5v3l3.1-3h2.1l-3.4,3.3l3.3,4.3h-1.9l-2.5-3.2l-0.6,0.6v2.6h-1.5V97.6z"/>
		<path fill="#FEC047" d="M46.8,102.2c0.2,1.1,0.9,1.7,1.8,1.7s1.5-0.4,1.5-1c0-0.5-0.5-0.8-1.6-0.9c-1.8-0.2-2.7-0.9-2.7-2.3
			c0-1.3,1.2-2.1,2.7-2.1c1.4,0,2.5,0.8,2.8,2.1l-1.4,0.6c-0.2-0.8-0.7-1.2-1.4-1.2c-0.7,0-1.2,0.3-1.2,0.7c0,0.5,0.3,0.7,1.3,0.8
			c1.9,0.2,3,0.9,3,2.4c0,1.5-1.2,2.5-3,2.5c-1.7,0-2.9-1-3.2-2.6L46.8,102.2z"/>
		<path fill="#021C63" d="M56.2,97.6h1.5v3h3.4v-3h1.5v7.5h-1.5V102h-3.4v3.1h-1.5V97.6z"/>
		<path fill="#FEB7C4" d="M78.3,97.6h3.4c1.5,0,2.4,1,2.4,2.4c0,1.4-0.9,2.4-2.4,2.4h-1.9v2.8h-1.5V97.6z M81.6,100.9
			c0.7,0,1-0.3,1-0.9c0-0.6-0.4-0.9-1-0.9h-1.8v1.9H81.6z"/>
	</g>
</g>
</svg>
