<!-- Generator: Adobe Illustrator 22.1.0, SVG Export Plug-In  -->
<svg version="1.1"
	 xmlns="http://www.w3.org/2000/svg" xmlns:xlink="http://www.w3.org/1999/xlink" xmlns:a="http://ns.adobe.com/AdobeSVGViewerExtensions/3.0/"
	 x="0px" y="0px" viewBox="0 0 80.2 24.1" style="enable-background:new 0 0 80.2 24.1;"
	 xml:space="preserve">
<style type="text/css">
	.st0{fill:#000000;}
</style>
<defs>
</defs>
<path class="st0" d="M10.6,10.2C6.1,9.1,5,8.3,5,6.5V6.5c0-1.5,1.4-2.8,3.8-2.8c2.1,0,4.2,0.8,6.3,2.4L17.4,3
	C15,1.1,12.3,0.1,8.9,0.1c-4.6,0-8,2.8-8,6.8v0.1c0,4.3,2.8,5.8,7.8,7c4.3,1,5.3,1.9,5.3,3.6v0.1c0,1.8-1.6,2.9-4.1,2.9
	c-2.9,0-5.1-1.1-7.4-3L0,20.3c2.8,2.5,6.2,3.7,9.7,3.7c4.9,0,8.3-2.6,8.3-7V17C18.1,13.2,15.5,11.4,10.6,10.2z M70.3,10.7v3.6h6v4.4
	c-1.4,1.1-3.4,1.8-5.6,1.8c-4.8,0-7.9-3.5-7.9-8.3V12c0-4.5,3.3-8.2,7.6-8.2c3,0,4.7,1,6.5,2.5l2.6-3.1c-2.4-2-4.9-3.2-9-3.2
	c-7,0-12,5.5-12,12.1v0.1c0,6.8,4.8,12,12.1,12c4.1,0,7.4-1.7,9.7-3.6v-9.8H70.3z M38.2,10c-1.2,0-2.1,0.9-2.1,2.1
	c0,1.2,0.9,2.1,2.1,2.1c1.2,0,2.1-0.9,2.1-2.1C40.3,10.9,39.3,10,38.2,10z"/>
</svg>
