<!-- Generator: Adobe Illustrator 23.0.1, SVG Export Plug-In  -->
<svg version="1.1" xmlns="http://www.w3.org/2000/svg" xmlns:xlink="http://www.w3.org/1999/xlink" x="0px" y="0px" width="58.26px"
	 height="22.49px" viewBox="0 0 58.26 22.49" enable-background="new 0 0 58.26 22.49" xml:space="preserve">
<defs>
</defs>
<path fill="#FEA500" d="M9.12,12.11c-0.43,1.52-1.83,2.64-3.48,2.64c-2,0-3.62-1.63-3.62-3.62c0-2,1.62-3.62,3.62-3.62
	c1.64,0,3.02,1.09,3.47,2.58c0.1,0.33,0.15,0.68,0.15,1.04C9.26,11.47,9.21,11.8,9.12,12.11 M48.02,0H46c0,4.04,2.2,7.79,5.53,10.09
	H11.18c-0.49-2.61-2.78-4.6-5.54-4.6C2.53,5.49,0,8.02,0,11.13c0,3.11,2.53,5.64,5.64,5.64c2.77,0,5.08-2.01,5.55-4.66h40.35
	C48.21,14.42,46,18.17,46,22.49h2.02c0-5.77,4.59-10.35,10.24-10.35v-2.02C52.62,10.12,48.02,5.48,48.02,0"/>
</svg>